<svg width="4" height="56" viewBox="0 0 4 56" fill="none" xmlns="http://www.w3.org/2000/svg">
<path d="M2.09915 56C2.78535 56 3.34162 55.4437 3.34162 54.7575C3.34162 54.0713 2.78535 53.5151 2.09915 53.5151C1.41296 53.5151 0.856689 54.0713 0.856689 54.7575C0.856689 55.4437 1.41296 56 2.09915 56Z" fill="#DE6944"/>
<path d="M2.09915 45.2621C2.78535 45.2621 3.34162 44.7058 3.34162 44.0196C3.34162 43.3334 2.78535 42.7772 2.09915 42.7772C1.41296 42.7772 0.856689 43.3334 0.856689 44.0196C0.856689 44.7058 1.41296 45.2621 2.09915 45.2621Z" fill="#DE6944"/>
<path d="M2.09915 34.5229C2.78535 34.5229 3.34162 33.9666 3.34162 33.2804C3.34162 32.5942 2.78535 32.0379 2.09915 32.0379C1.41296 32.0379 0.856689 32.5942 0.856689 33.2804C0.856689 33.9666 1.41296 34.5229 2.09915 34.5229Z" fill="#DE6944"/>
<path d="M2.09915 23.8731C2.78535 23.8731 3.34162 23.3169 3.34162 22.6307C3.34162 21.9445 2.78535 21.3882 2.09915 21.3882C1.41296 21.3882 0.856689 21.9445 0.856689 22.6307C0.856689 23.3169 1.41296 23.8731 2.09915 23.8731Z" fill="#DE6944"/>
<path d="M2.09915 13.1352C2.78535 13.1352 3.34162 12.579 3.34162 11.8928C3.34162 11.2066 2.78535 10.6503 2.09915 10.6503C1.41296 10.6503 0.856689 11.2066 0.856689 11.8928C0.856689 12.579 1.41296 13.1352 2.09915 13.1352Z" fill="#DE6944"/>
<path d="M2.10062 2.48575C2.78681 2.48575 3.34308 1.92948 3.34308 1.24329C3.34308 0.557094 2.78681 0.000823975 2.10062 0.000823975C1.41442 0.000823975 0.858154 0.557094 0.858154 1.24329C0.858154 1.92948 1.41442 2.48575 2.10062 2.48575Z" fill="#DE6944"/>
</svg>
